PathFileType	4	(X/Y/Z)	c:/Users/goper/Files/vsCode/490R/osim_files/A01/A01_Fast_03.trc
DataRate	CameraRate	NumFrames	NumMarkers	Units                	OrigDataRate	OrigDataStartFrame	OrigNumFrames
120.00	120.00	6	36	mm	120.0	578	1154
                Frame#	Time	Mobility_markerset:LPSIS			Mobility_markerset:LASIS			Mobility_markerset:LTH1			Mobility_markerset:LTH2			Mobility_markerset:LTH3			Mobility_markerset:LTH4			Mobility_markerset:LLFE			Mobility_markerset:LMFE			Mobility_markerset:LSH1			Mobility_markerset:LSH2			Mobility_markerset:LSH3			Mobility_markerset:LSH4			Mobility_markerset:LLMAL			Mobility_markerset:LMMAL			Mobility_markerset:LCAL			Mobility_markerset:LMTP5			Mobility_markerset:LTOE			Mobility_markerset:LMTP1			Mobility_markerset:RPSIS			Mobility_markerset:RASIS			Mobility_markerset:RTH1			Mobility_markerset:RTH2			Mobility_markerset:RTH3			Mobility_markerset:RTH4			Mobility_markerset:RLFE			Mobility_markerset:RMFE			Mobility_markerset:RSH1			Mobility_markerset:RSH2			Mobility_markerset:RSH3			Mobility_markerset:RSH4			Mobility_markerset:RLMAL			Mobility_markerset:RMMAL			Mobility_markerset:RCAL			Mobility_markerset:RMTP1			Mobility_markerset:RTOE			Mobility_markerset:RMTP5		
		X1	Y1	Z1	X2	Y2	Z2	X3	Y3	Z3	X4	Y4	Z4	X5	Y5	Z5	X6	Y6	Z6	X7	Y7	Z7	X8	Y8	Z8	X9	Y9	Z9	X10	Y10	Z10	X11	Y11	Z11	X12	Y12	Z12	X13	Y13	Z13	X14	Y14	Z14	X15	Y15	Z15	X16	Y16	Z16	X17	Y17	Z17	X18	Y18	Z18	X19	Y19	Z19	X20	Y20	Z20	X21	Y21	Z21	X22	Y22	Z22	X23	Y23	Z23	X24	Y24	Z24	X25	Y25	Z25	X26	Y26	Z26	X27	Y27	Z27	X28	Y28	Z28	X29	Y29	Z29	X30	Y30	Z30	X31	Y31	Z31	X32	Y32	Z32	X33	Y33	Z33	X34	Y34	Z34	X35	Y35	Z35	X36	Y36	Z36

578	4.80833	-1846.13293	1006.13971	322.81870	-2052.67041	961.60529	475.93292	-1863.41125	651.65894	490.58017	-1860.44934	604.83295	481.09912	-1921.88721	639.97003	498.19080	-1911.42212	596.58563	484.12274	-1869.48303	480.62000	451.99637	-1890.44653	484.62213	314.26703	-1739.26514	376.09192	431.06763	-1709.50708	339.00607	431.01068	-1784.22937	333.78683	428.02792	-1748.97021	304.29181	427.16278	-1566.97778	137.32220	398.31479	-1557.97009	144.46179	308.72220	-1482.03870	150.04085	354.86554	-1665.36816	34.04208	409.95734	-1693.71973	52.87663	340.59970	0.00000	0.00000	0.00000	-1870.77478	1003.64197	225.39688	-2115.85205	964.28497	223.50191	-2172.78003	676.57977	150.16461	-2189.06396	637.03656	158.53667	-2121.38721	644.41626	136.22867	-2144.90137	609.93781	150.21553	-2228.39526	503.16025	208.75420	-2201.30786	518.74377	327.35281	-2200.29175	290.06857	192.59067	-2214.99780	247.80576	194.78485	-2258.57275	305.09778	203.22478	-2264.37012	262.37277	202.42610	-2271.98730	85.39508	235.64513	-2279.93726	105.97675	323.12747	-2220.70166	53.41056	281.08423	-2419.22925	77.38747	335.30081	-2452.07300	107.81357	295.87595	-2412.99194	62.80544	224.42999
579	4.81667	-1858.88196	1003.42841	324.16635	-2067.43994	958.66248	474.09760	-1879.97290	648.89392	491.30289	-1877.18652	602.04199	482.11993	-1938.34485	637.49756	498.89774	-1928.19177	593.94995	485.10938	-1886.06409	477.52600	454.05676	-1907.50366	481.43063	316.30106	-1752.69019	377.09650	432.24106	-1721.81250	341.01974	431.77966	-1796.01343	333.90576	429.02063	-1760.52820	307.00256	429.63138	-1573.24597	142.73036	396.94028	-1565.30811	151.64877	308.65378	-1489.03979	160.27773	353.82123	-1665.83655	35.06887	409.98801	-1694.60632	53.07626	340.47858	0.00000	0.00000	0.00000	-1883.21582	1001.60803	226.13142	-2128.64893	963.85095	222.01259	-2184.05542	676.08722	148.45189	-2199.58765	636.07275	155.94168	-2131.14502	645.55969	136.16183	-2154.40088	610.27777	149.00130	-2241.10425	505.16806	208.07854	-2209.06616	516.91949	329.28995	-2211.38477	292.47238	191.09705	-2224.72632	249.63315	193.75887	-2269.76636	305.79999	203.03200	-2275.74292	261.30939	203.74379	-2275.56201	84.82140	235.40225	-2283.41943	106.23521	322.32870	-2222.38867	54.63702	280.58899	-2422.04565	72.00203	335.07098	-2455.75806	101.14508	295.76071	-2415.30200	57.02435	224.09465
580	4.82500	-1871.62256	1001.18304	325.67789	-2083.17432	956.36987	472.70334	-1897.30249	646.60083	492.26578	-1894.85559	599.66449	483.29172	-1955.81885	635.76355	499.80521	-1945.83789	592.06360	486.25537	-1903.66113	474.60321	456.62985	-1926.04443	478.09952	318.71240	-1766.83630	378.78705	432.99768	-1734.52380	343.61539	432.16718	-1809.01501	333.87125	430.23428	-1771.65125	307.05118	428.97623	-1580.44861	149.65656	395.60123	-1573.46973	159.88921	307.86905	-1497.36682	171.46291	352.19507	-1666.45923	36.32990	409.93582	-1696.16162	53.45851	340.44226	0.00000	0.00000	0.00000	-1895.56360	1000.16437	226.88132	-2141.41064	963.33557	220.40388	-2196.16602	676.36060	144.98979	-2210.35962	637.00641	153.50110	-2141.28101	647.76459	136.45555	-2164.13232	612.76630	148.29231	-2255.30615	509.14822	208.42468	-2218.41235	517.17853	329.85916	-2221.17627	295.08197	190.04523	-2232.98486	251.80077	192.82892	-2279.66455	306.21054	202.92970	-2284.32422	261.58325	203.78326	-2278.01416	84.74180	235.02075	-2286.62744	106.61764	321.65063	-2223.95483	55.68084	280.17456	-2424.37378	66.81774	335.35529	-2459.38818	94.31299	295.79797	-2417.37158	51.99607	224.09964
581	4.83333	-1884.24780	999.14240	327.51080	-2097.92041	954.45282	470.75583	-1915.25037	644.80634	493.40628	-1913.35071	597.71844	484.64700	-1973.85291	634.64465	500.91907	-1964.52930	590.87274	487.60562	-1922.43054	471.70346	459.64444	-1945.93420	474.72958	321.49869	-1782.21497	380.65100	434.07925	-1749.36865	346.31274	433.36679	-1822.87451	334.30927	431.73273	-1784.20300	307.78687	429.36896	-1588.76599	157.28571	393.98529	-1584.10229	167.37096	307.71625	-1507.17712	183.71822	349.90628	-1667.57373	37.71590	409.73926	-1699.33740	53.74601	339.98193	0.00000	0.00000	0.00000	-1907.64685	999.36133	227.58411	-2154.11621	963.23621	218.77982	-2208.17017	678.30396	143.89151	-2222.32178	638.81854	151.99080	-2152.75293	650.30090	136.66284	-2175.98828	614.90845	147.09236	-2270.14062	512.38147	210.21936	-2229.73560	519.92358	329.49780	-2229.49146	297.23248	189.56378	-2240.41089	253.48854	192.40295	-2289.14453	306.67596	203.51675	-2291.80151	261.57413	204.06779	-2280.58130	84.87212	234.96849	-2289.21167	106.29906	321.31558	-2225.18237	56.75458	279.86331	-2425.99658	62.30096	336.03696	-2461.76147	87.82309	296.67889	-2419.05151	47.70275	224.48810
582	4.84167	-1896.77466	997.93445	329.03427	-2111.48486	952.94727	468.42096	-1933.59485	642.93781	494.14172	-1932.52588	596.09015	486.23166	-1992.66882	634.03003	502.26193	-1983.87842	590.02533	489.21594	-1941.29944	469.50558	462.25998	-1967.08655	470.96042	324.90414	-1798.79565	382.60239	435.29932	-1764.76294	349.48965	434.04959	-1837.86877	334.95602	433.31793	-1798.82239	310.56897	431.10794	-1598.45874	164.83641	392.22049	-1595.16162	175.58046	306.26407	-1518.78967	196.44908	347.32043	-1669.21338	39.85846	409.31601	-1705.17981	52.35063	339.77908	0.00000	0.00000	0.00000	-1919.86096	999.19775	228.35272	-2167.66016	963.72498	217.27266	-2220.76562	680.15759	143.00931	-2235.07056	640.77832	151.49191	-2165.47925	651.81989	135.76622	-2189.00659	616.58459	146.40210	-2284.92480	513.47522	212.66515	-2242.08887	524.04846	329.31152	-2237.31104	298.47046	189.51852	-2246.99121	254.47696	192.39047	-2297.03076	306.30154	203.84445	-2298.57886	261.33652	204.32428	-2282.80688	85.21825	234.82133	-2291.72510	105.94009	321.27063	-2226.21313	57.61293	279.54385	-2427.26636	58.25037	336.74017	-2464.04614	82.50953	297.44449	-2420.18896	44.23655	224.90636
583	4.85000	-1909.23547	996.80646	330.71066	-2125.41772	952.31464	466.57953	-1952.75891	641.36804	495.65167	-1952.69202	594.30957	488.03876	-2012.08459	633.74152	503.94016	-2004.15771	589.43372	491.28601	-1961.60803	466.56241	465.58398	-1990.46228	465.95502	330.02716	-1816.46167	384.61862	436.41019	-1781.19629	352.63135	434.73724	-1853.73291	335.64304	435.07162	-1813.99670	312.66861	432.30432	-1608.02881	173.39053	390.33145	-1607.55713	183.78694	304.54153	-1531.98560	209.44746	344.38699	-1671.06677	42.78757	408.63080	-1710.83606	50.04430	340.74347	-1687.90381	48.89934	308.82248	-1932.22998	999.67218	229.14732	-2180.81519	964.39008	215.62030	-2233.24414	681.54419	142.39981	-2247.91504	642.41455	151.33508	-2178.22363	652.66565	134.84570	-2202.63721	617.62073	146.46548	-2298.10693	513.16248	215.03781	-2255.88452	527.63074	329.91800	-2244.10547	299.01547	189.76826	-2252.80176	254.84447	192.54228	-2303.53882	305.76102	203.81694	-2304.56226	260.66547	204.52446	-2284.55664	85.54234	234.84183	-2294.03955	105.71971	321.28735	-2227.13257	58.32101	279.38995	-2428.41113	54.97866	337.26614	-2465.92896	77.82630	298.00934	-2419.93311	39.44673	226.47963
